<svg width="195" height="84" viewBox="0 0 195 84" fill="none" xmlns="http://www.w3.org/2000/svg">
<rect x="1" y="1" width="193" height="82" fill="#222121" stroke="#D1A25E" stroke-width="2"/>
<path d="M31.321 47V36.0909H35.0071C35.8629 36.0909 36.5625 36.2454 37.1058 36.5543C37.6527 36.8597 38.0575 37.2734 38.3203 37.7955C38.5831 38.3175 38.7145 38.8999 38.7145 39.5426C38.7145 40.1854 38.5831 40.7695 38.3203 41.2951C38.0611 41.8207 37.6598 42.2397 37.1165 42.5522C36.5732 42.8612 35.8771 43.0156 35.0284 43.0156H32.3864V41.8438H34.9858C35.5717 41.8438 36.0423 41.7425 36.3974 41.5401C36.7525 41.3377 37.0099 41.0643 37.1697 40.7198C37.3331 40.3718 37.4148 39.9794 37.4148 39.5426C37.4148 39.1058 37.3331 38.7152 37.1697 38.3707C37.0099 38.0263 36.7507 37.7564 36.392 37.5611C36.0334 37.3622 35.5575 37.2628 34.9645 37.2628H32.642V47H31.321ZM41.9292 36.0909V47H40.6721V36.0909H41.9292ZM49.3879 43.6548V38.8182H50.645V47H49.3879V45.6151H49.3026C49.1109 46.0305 48.8126 46.3839 48.4078 46.6751C48.0029 46.9627 47.4916 47.1065 46.8737 47.1065C46.3623 47.1065 45.9078 46.9947 45.51 46.771C45.1123 46.5437 44.7998 46.2028 44.5725 45.7482C44.3453 45.2901 44.2316 44.7131 44.2316 44.017V38.8182H45.4887V43.9318C45.4887 44.5284 45.6556 45.0043 45.9894 45.3594C46.3268 45.7145 46.7565 45.892 47.2785 45.892C47.591 45.892 47.9088 45.8121 48.232 45.6523C48.5587 45.4925 48.8321 45.2475 49.0523 44.9173C49.276 44.587 49.3879 44.1662 49.3879 43.6548ZM58.7429 40.6506L57.6136 40.9702C57.5426 40.782 57.4379 40.5991 57.2994 40.4215C57.1644 40.2404 56.9798 40.0913 56.7454 39.9741C56.511 39.8569 56.2109 39.7983 55.8452 39.7983C55.3445 39.7983 54.9272 39.9137 54.5934 40.1445C54.2631 40.3718 54.098 40.6612 54.098 41.0128C54.098 41.3253 54.2116 41.5721 54.4389 41.7532C54.6662 41.9343 55.0213 42.0852 55.5043 42.206L56.7188 42.5043C57.4503 42.6818 57.9954 42.9535 58.354 43.3192C58.7127 43.6815 58.892 44.1484 58.892 44.7202C58.892 45.1889 58.7571 45.608 58.4872 45.9773C58.2209 46.3466 57.848 46.6378 57.3686 46.8509C56.8892 47.0639 56.3317 47.1705 55.696 47.1705C54.8615 47.1705 54.1708 46.9893 53.6239 46.6271C53.0771 46.2649 52.7308 45.7358 52.5852 45.0398L53.7784 44.7415C53.892 45.1818 54.1069 45.5121 54.4229 45.7322C54.7425 45.9524 55.1598 46.0625 55.6747 46.0625C56.2607 46.0625 56.7259 45.9382 57.0703 45.6896C57.4183 45.4375 57.5923 45.1357 57.5923 44.7841C57.5923 44.5 57.4929 44.2621 57.294 44.0703C57.0952 43.875 56.7898 43.7294 56.3778 43.6335L55.0142 43.3139C54.2649 43.1364 53.7145 42.8612 53.3629 42.4883C53.0149 42.1119 52.8409 41.6413 52.8409 41.0767C52.8409 40.6151 52.9705 40.2067 53.2298 39.8516C53.4925 39.4964 53.8494 39.2177 54.3004 39.0153C54.755 38.8129 55.2699 38.7116 55.8452 38.7116C56.6548 38.7116 57.2905 38.8892 57.7521 39.2443C58.2173 39.5994 58.5476 40.0682 58.7429 40.6506ZM68.0926 47.1705C67.4108 47.1705 66.8089 46.9982 66.2868 46.6538C65.7648 46.3058 65.3564 45.8157 65.0617 45.1836C64.767 44.5479 64.6196 43.7969 64.6196 42.9304C64.6196 42.071 64.767 41.3253 65.0617 40.6932C65.3564 40.0611 65.7666 39.5728 66.2922 39.2283C66.8177 38.8839 67.425 38.7116 68.1139 38.7116C68.6466 38.7116 69.0674 38.8004 69.3763 38.978C69.6888 39.152 69.9268 39.3509 70.0901 39.5746C70.257 39.7947 70.3866 39.9759 70.479 40.1179H70.5855V36.0909H71.8426V47H70.6281V45.7429H70.479C70.3866 45.892 70.2552 46.0803 70.0848 46.3075C69.9143 46.5312 69.6711 46.7319 69.355 46.9094C69.039 47.0835 68.6182 47.1705 68.0926 47.1705ZM68.2631 46.0412C68.7673 46.0412 69.1934 45.9098 69.5415 45.647C69.8895 45.3807 70.154 45.0131 70.3351 44.5444C70.5162 44.0721 70.6068 43.527 70.6068 42.9091C70.6068 42.2983 70.518 41.7638 70.3405 41.3058C70.1629 40.8441 69.9001 40.4854 69.5521 40.2298C69.2041 39.9705 68.7744 39.8409 68.2631 39.8409C67.7304 39.8409 67.2865 39.9776 66.9314 40.2511C66.5798 40.521 66.3153 40.8885 66.1377 41.3537C65.9637 41.8153 65.8767 42.3338 65.8767 42.9091C65.8767 43.4915 65.9655 44.0206 66.143 44.4964C66.3241 44.9687 66.5905 45.3452 66.942 45.6257C67.2971 45.9027 67.7375 46.0412 68.2631 46.0412ZM75.4275 36.0909V37.0497C75.4275 37.3409 75.3742 37.6516 75.2677 37.9819C75.1647 38.3086 75.012 38.6264 74.8096 38.9354C74.6107 39.2408 74.3692 39.5071 74.0851 39.7344L73.4033 39.1804C73.627 38.8608 73.8206 38.5288 73.9839 38.1843C74.1508 37.8363 74.2343 37.4652 74.2343 37.071V36.0909H75.4275ZM77.0881 47V38.8182H78.3452V47H77.0881ZM77.7273 37.4545C77.4822 37.4545 77.271 37.3711 77.0934 37.2042C76.9194 37.0373 76.8324 36.8366 76.8324 36.6023C76.8324 36.3679 76.9194 36.1673 77.0934 36.0004C77.271 35.8335 77.4822 35.75 77.7273 35.75C77.9723 35.75 78.1818 35.8335 78.3558 36.0004C78.5334 36.1673 78.6222 36.3679 78.6222 36.6023C78.6222 36.8366 78.5334 37.0373 78.3558 37.2042C78.1818 37.3711 77.9723 37.4545 77.7273 37.4545ZM81.9047 42.0781V47H80.6476V38.8182H81.8621V40.0966H81.9687C82.1604 39.6811 82.4516 39.3473 82.8422 39.0952C83.2329 38.8395 83.7371 38.7116 84.355 38.7116C84.909 38.7116 85.3937 38.8253 85.8092 39.0526C86.2247 39.2763 86.5479 39.6172 86.7787 40.0753C87.0095 40.5298 87.1249 41.1051 87.1249 41.8011V47H85.8678V41.8864C85.8678 41.2436 85.7009 40.7429 85.3671 40.3842C85.0333 40.022 84.5752 39.8409 83.9928 39.8409C83.5915 39.8409 83.2329 39.9279 82.9168 40.1019C82.6043 40.2759 82.3575 40.5298 82.1764 40.8636C81.9953 41.1974 81.9047 41.6023 81.9047 42.0781ZM93.0655 38.8182V39.8835H88.655V38.8182H93.0655ZM89.976 47V37.6889C89.976 37.2202 90.0861 36.8295 90.3063 36.517C90.5265 36.2045 90.8123 35.9702 91.1639 35.8139C91.5154 35.6577 91.8865 35.5795 92.2772 35.5795C92.5861 35.5795 92.8382 35.6044 93.0336 35.6541C93.2289 35.7038 93.3745 35.75 93.4703 35.7926L93.1081 36.8793C93.0442 36.858 92.9554 36.8313 92.8418 36.7994C92.7317 36.7674 92.5861 36.7514 92.405 36.7514C91.9895 36.7514 91.6895 36.8562 91.5048 37.0657C91.3237 37.2752 91.2331 37.5824 91.2331 37.9872V47H89.976ZM97.8143 47.1705C97.0756 47.1705 96.4276 46.9947 95.87 46.6431C95.3161 46.2915 94.8828 45.7997 94.5703 45.1676C94.2614 44.5355 94.1069 43.7969 94.1069 42.9517C94.1069 42.0994 94.2614 41.3555 94.5703 40.7198C94.8828 40.0842 95.3161 39.5906 95.87 39.239C96.4276 38.8874 97.0756 38.7116 97.8143 38.7116C98.5529 38.7116 99.1992 38.8874 99.7532 39.239C100.311 39.5906 100.744 40.0842 101.053 40.7198C101.365 41.3555 101.522 42.0994 101.522 42.9517C101.522 43.7969 101.365 44.5355 101.053 45.1676C100.744 45.7997 100.311 46.2915 99.7532 46.6431C99.1992 46.9947 98.5529 47.1705 97.8143 47.1705ZM97.8143 46.0412C98.3754 46.0412 98.837 45.8974 99.1992 45.6097C99.5614 45.3221 99.8295 44.9439 100.004 44.4751C100.178 44.0064 100.265 43.4986 100.265 42.9517C100.265 42.4048 100.178 41.8952 100.004 41.4229C99.8295 40.9506 99.5614 40.5689 99.1992 40.2777C98.837 39.9865 98.3754 39.8409 97.8143 39.8409C97.2532 39.8409 96.7915 39.9865 96.4293 40.2777C96.0671 40.5689 95.799 40.9506 95.625 41.4229C95.451 41.8952 95.364 42.4048 95.364 42.9517C95.364 43.4986 95.451 44.0064 95.625 44.4751C95.799 44.9439 96.0671 45.3221 96.4293 45.6097C96.7915 45.8974 97.2532 46.0412 97.8143 46.0412ZM103.441 47V38.8182H104.655V40.054H104.74C104.889 39.6491 105.159 39.3207 105.55 39.0685C105.941 38.8164 106.381 38.6903 106.871 38.6903C106.963 38.6903 107.079 38.6921 107.217 38.6957C107.356 38.6992 107.46 38.7045 107.532 38.7116V39.9901C107.489 39.9794 107.391 39.9634 107.239 39.9421C107.089 39.9173 106.931 39.9048 106.764 39.9048C106.367 39.9048 106.012 39.9883 105.699 40.1552C105.39 40.3185 105.145 40.5458 104.964 40.837C104.786 41.1246 104.698 41.4531 104.698 41.8224V47H103.441ZM109.022 47V38.8182H110.236V40.0966H110.343C110.513 39.6598 110.788 39.3207 111.168 39.0792C111.548 38.8342 112.005 38.7116 112.537 38.7116C113.077 38.7116 113.526 38.8342 113.885 39.0792C114.247 39.3207 114.529 39.6598 114.732 40.0966H114.817C115.027 39.674 115.341 39.3384 115.76 39.0898C116.179 38.8377 116.681 38.7116 117.267 38.7116C117.999 38.7116 118.597 38.9407 119.062 39.3988C119.528 39.8533 119.76 40.5618 119.76 41.5241V47H118.503V41.5241C118.503 40.9205 118.338 40.489 118.008 40.2298C117.678 39.9705 117.289 39.8409 116.841 39.8409C116.266 39.8409 115.82 40.0149 115.504 40.3629C115.188 40.7074 115.03 41.1442 115.03 41.6733V47H113.752V41.3963C113.752 40.9311 113.601 40.5565 113.299 40.2724C112.997 39.9847 112.608 39.8409 112.132 39.8409C111.806 39.8409 111.5 39.9279 111.216 40.1019C110.936 40.2759 110.708 40.5174 110.534 40.8263C110.364 41.1317 110.279 41.4851 110.279 41.8864V47H109.022ZM124.466 47.1918C123.948 47.1918 123.477 47.0941 123.055 46.8988C122.632 46.6999 122.297 46.4141 122.048 46.0412C121.8 45.6648 121.675 45.2102 121.675 44.6776C121.675 44.2088 121.768 43.8288 121.952 43.5376C122.137 43.2429 122.384 43.0121 122.693 42.8452C123.002 42.6783 123.343 42.554 123.715 42.4723C124.092 42.3871 124.47 42.3196 124.85 42.2699C125.347 42.206 125.75 42.158 126.059 42.1261C126.372 42.0906 126.599 42.032 126.741 41.9503C126.887 41.8686 126.959 41.7266 126.959 41.5241V41.4815C126.959 40.956 126.816 40.5476 126.528 40.2564C126.244 39.9652 125.812 39.8196 125.233 39.8196C124.633 39.8196 124.163 39.951 123.822 40.2138C123.481 40.4766 123.241 40.7571 123.103 41.0554L121.91 40.6293C122.123 40.1321 122.407 39.745 122.762 39.468C123.121 39.1875 123.511 38.9922 123.934 38.8821C124.36 38.7685 124.779 38.7116 125.191 38.7116C125.454 38.7116 125.756 38.7436 126.096 38.8075C126.441 38.8679 126.773 38.994 127.093 39.1857C127.416 39.3775 127.684 39.6669 127.897 40.054C128.11 40.4411 128.216 40.9595 128.216 41.6094V47H126.959V45.892H126.895C126.81 46.0696 126.668 46.2596 126.469 46.462C126.27 46.6644 126.006 46.8366 125.676 46.9787C125.345 47.1207 124.942 47.1918 124.466 47.1918ZM124.658 46.0625C125.155 46.0625 125.574 45.9648 125.915 45.7695C126.26 45.5742 126.519 45.3221 126.693 45.0131C126.871 44.7042 126.959 44.3793 126.959 44.0384V42.8878C126.906 42.9517 126.789 43.0103 126.608 43.0636C126.43 43.1133 126.224 43.1577 125.99 43.1967C125.759 43.2322 125.534 43.2642 125.313 43.2926C125.097 43.3175 124.921 43.3388 124.786 43.3565C124.459 43.3991 124.154 43.4684 123.87 43.5643C123.589 43.6566 123.362 43.7969 123.188 43.9851C123.018 44.1697 122.932 44.4219 122.932 44.7415C122.932 45.1783 123.094 45.5085 123.417 45.7322C123.744 45.9524 124.157 46.0625 124.658 46.0625ZM134.069 38.8182V39.8835H129.829V38.8182H134.069ZM131.065 36.858H132.322V44.6562C132.322 45.0114 132.373 45.2777 132.476 45.4553C132.583 45.6293 132.718 45.7464 132.881 45.8068C133.048 45.8636 133.224 45.892 133.409 45.892C133.547 45.892 133.661 45.8849 133.75 45.8707C133.838 45.853 133.909 45.8388 133.963 45.8281L134.218 46.9574C134.133 46.9893 134.014 47.0213 133.861 47.0533C133.709 47.0888 133.515 47.1065 133.281 47.1065C132.926 47.1065 132.578 47.0302 132.237 46.8775C131.899 46.7248 131.619 46.4922 131.395 46.1797C131.175 45.8672 131.065 45.473 131.065 44.9972V36.858ZM135.96 47V38.8182H137.217V47H135.96ZM136.599 37.4545C136.354 37.4545 136.143 37.3711 135.965 37.2042C135.791 37.0373 135.704 36.8366 135.704 36.6023C135.704 36.3679 135.791 36.1673 135.965 36.0004C136.143 35.8335 136.354 35.75 136.599 35.75C136.844 35.75 137.054 35.8335 137.228 36.0004C137.405 36.1673 137.494 36.3679 137.494 36.6023C137.494 36.8366 137.405 37.0373 137.228 37.2042C137.054 37.3711 136.844 37.4545 136.599 37.4545ZM142.844 47.1705C142.105 47.1705 141.457 46.9947 140.899 46.6431C140.345 46.2915 139.912 45.7997 139.6 45.1676C139.291 44.5355 139.136 43.7969 139.136 42.9517C139.136 42.0994 139.291 41.3555 139.6 40.7198C139.912 40.0842 140.345 39.5906 140.899 39.239C141.457 38.8874 142.105 38.7116 142.844 38.7116C143.582 38.7116 144.229 38.8874 144.782 39.239C145.34 39.5906 145.773 40.0842 146.082 40.7198C146.395 41.3555 146.551 42.0994 146.551 42.9517C146.551 43.7969 146.395 44.5355 146.082 45.1676C145.773 45.7997 145.34 46.2915 144.782 46.6431C144.229 46.9947 143.582 47.1705 142.844 47.1705ZM142.844 46.0412C143.405 46.0412 143.866 45.8974 144.229 45.6097C144.591 45.3221 144.859 44.9439 145.033 44.4751C145.207 44.0064 145.294 43.4986 145.294 42.9517C145.294 42.4048 145.207 41.8952 145.033 41.4229C144.859 40.9506 144.591 40.5689 144.229 40.2777C143.866 39.9865 143.405 39.8409 142.844 39.8409C142.282 39.8409 141.821 39.9865 141.459 40.2777C141.096 40.5689 140.828 40.9506 140.654 41.4229C140.48 41.8952 140.393 42.4048 140.393 42.9517C140.393 43.4986 140.48 44.0064 140.654 44.4751C140.828 44.9439 141.096 45.3221 141.459 45.6097C141.821 45.8974 142.282 46.0412 142.844 46.0412ZM149.727 42.0781V47H148.47V38.8182H149.684V40.0966H149.791C149.983 39.6811 150.274 39.3473 150.665 39.0952C151.055 38.8395 151.559 38.7116 152.177 38.7116C152.731 38.7116 153.216 38.8253 153.631 39.0526C154.047 39.2763 154.37 39.6172 154.601 40.0753C154.832 40.5298 154.947 41.1051 154.947 41.8011V47H153.69V41.8864C153.69 41.2436 153.523 40.7429 153.189 40.3842C152.856 40.022 152.397 39.8409 151.815 39.8409C151.414 39.8409 151.055 39.9279 150.739 40.1019C150.427 40.2759 150.18 40.5298 149.999 40.8636C149.818 41.1974 149.727 41.6023 149.727 42.0781ZM163.04 40.6506L161.911 40.9702C161.839 40.782 161.735 40.5991 161.596 40.4215C161.461 40.2404 161.277 40.0913 161.042 39.9741C160.808 39.8569 160.508 39.7983 160.142 39.7983C159.641 39.7983 159.224 39.9137 158.89 40.1445C158.56 40.3718 158.395 40.6612 158.395 41.0128C158.395 41.3253 158.509 41.5721 158.736 41.7532C158.963 41.9343 159.318 42.0852 159.801 42.206L161.016 42.5043C161.747 42.6818 162.292 42.9535 162.651 43.3192C163.01 43.6815 163.189 44.1484 163.189 44.7202C163.189 45.1889 163.054 45.608 162.784 45.9773C162.518 46.3466 162.145 46.6378 161.665 46.8509C161.186 47.0639 160.629 47.1705 159.993 47.1705C159.158 47.1705 158.468 46.9893 157.921 46.6271C157.374 46.2649 157.028 45.7358 156.882 45.0398L158.075 44.7415C158.189 45.1818 158.404 45.5121 158.72 45.7322C159.039 45.9524 159.457 46.0625 159.972 46.0625C160.558 46.0625 161.023 45.9382 161.367 45.6896C161.715 45.4375 161.889 45.1357 161.889 44.7841C161.889 44.5 161.79 44.2621 161.591 44.0703C161.392 43.875 161.087 43.7294 160.675 43.6335L159.311 43.3139C158.562 43.1364 158.011 42.8612 157.66 42.4883C157.312 42.1119 157.138 41.6413 157.138 41.0767C157.138 40.6151 157.267 40.2067 157.527 39.8516C157.789 39.4964 158.146 39.2177 158.597 39.0153C159.052 38.8129 159.567 38.7116 160.142 38.7116C160.952 38.7116 161.587 38.8892 162.049 39.2443C162.514 39.5994 162.844 40.0682 163.04 40.6506Z" fill="#D1A25E"/>
</svg>
